<svg width="20" height="20" viewBox="0 0 20 20" fill="none" xmlns="http://www.w3.org/2000/svg">
<g clip-path="url(#clip0_12105_683)">
<path fill-rule="evenodd" clip-rule="evenodd" d="M0.624754 7.5C0.531233 7.50004 0.438913 7.52106 0.354598 7.56152C0.270283 7.60198 0.196122 7.66085 0.137583 7.73378C0.0790443 7.80672 0.037619 7.89186 0.0163609 7.98293C-0.0048973 8.074 -0.00544636 8.16869 0.0147542 8.26L2.07975 17.5525C2.23389 18.2466 2.62009 18.8673 3.17461 19.3123C3.72912 19.7573 4.41878 19.9998 5.12975 20H12.3698C13.0807 19.9998 13.7704 19.7573 14.3249 19.3123C14.8794 18.8673 15.2656 18.2466 15.4198 17.5525L15.5835 16.815C16.5397 16.9938 17.5279 16.7941 18.3396 16.2581C19.1513 15.722 19.7229 14.8915 19.9338 13.9419C20.1446 12.9923 19.9783 11.9979 19.4698 11.1686C18.9613 10.3394 18.1505 9.74018 17.2085 9.4975L17.4848 8.26C17.505 8.16869 17.5044 8.074 17.4831 7.98293C17.4619 7.89186 17.4205 7.80672 17.3619 7.73378C17.3034 7.66085 17.2292 7.60198 17.1449 7.56152C17.0606 7.52106 16.9683 7.50004 16.8748 7.5H0.624754ZM16.2498 15.625C16.1175 15.6251 15.9854 15.6146 15.8548 15.5938L16.9385 10.7212C17.5166 10.8887 18.015 11.259 18.3421 11.7642C18.6693 12.2694 18.8033 12.8756 18.7196 13.4717C18.6359 14.0677 18.3401 14.6135 17.8864 15.0091C17.4327 15.4046 16.8516 15.6233 16.2498 15.625ZM3.29975 17.2812L1.4035 8.75H16.096L14.1998 17.2812C14.1073 17.6977 13.8756 18.0702 13.5429 18.3373C13.2102 18.6043 12.7964 18.7499 12.3698 18.75H5.12975C4.70314 18.7499 4.28931 18.6043 3.9566 18.3373C3.62389 18.0702 3.39219 17.6977 3.29975 17.2812Z" fill="#101828"/>
<path d="M5.5 0.999991L5.49625 1.00499L5.47875 1.02874C5.3878 1.15389 5.30271 1.2832 5.22375 1.41624C5.15667 1.52289 5.09776 1.63446 5.0475 1.74999C5.015 1.82499 5.005 1.86499 5.00125 1.87874V1.88374C5.01567 1.99424 5.05452 2.10014 5.115 2.19374C5.20875 2.35999 5.3375 2.53374 5.5 2.74999L5.5125 2.76499C5.66 2.96249 5.8375 3.19874 5.975 3.44374C6.115 3.69374 6.25 4.01249 6.25 4.37499C6.25 4.60999 6.16875 4.83499 6.10125 4.99249C6.029 5.16009 5.94461 5.32218 5.84875 5.47749C5.75069 5.64141 5.64516 5.80074 5.5325 5.95499L5.51 5.98624L5.50375 5.99624L5.50125 5.99874C5.40196 6.13152 5.25399 6.21941 5.0899 6.24308C4.9258 6.26676 4.75902 6.22428 4.62625 6.12499C4.49348 6.0257 4.40558 5.87773 4.38191 5.71364C4.35823 5.54954 4.40071 5.38276 4.5 5.24999L4.50375 5.24499L4.52125 5.22124C4.6122 5.09609 4.69729 4.96678 4.77625 4.83374C4.84333 4.72709 4.90224 4.61552 4.9525 4.49999C4.985 4.42499 4.995 4.38499 4.99875 4.37124C4.98544 4.25911 4.94698 4.15143 4.88625 4.05624C4.77022 3.86231 4.64117 3.67647 4.5 3.49999L4.4875 3.48499C4.31862 3.26913 4.16412 3.04239 4.025 2.80624C3.85475 2.52465 3.76003 2.2039 3.75 1.87499C3.75 1.63999 3.83125 1.41499 3.89875 1.25749C3.9725 1.08499 4.06625 0.914991 4.15125 0.772491C4.25055 0.609356 4.35604 0.450074 4.4675 0.294991L4.49875 0.251241C4.59804 0.118467 4.74601 0.0305745 4.9101 0.00689803C5.0742 -0.0167784 5.24098 0.025701 5.37375 0.124991C5.50652 0.224282 5.59442 0.37225 5.61809 0.536344C5.64177 0.700439 5.59929 0.867217 5.5 0.999991ZM9.25 0.999991L9.24625 1.00499L9.22875 1.02874C9.1378 1.15389 9.05271 1.2832 8.97375 1.41624C8.90667 1.52289 8.84776 1.63446 8.7975 1.74999C8.765 1.82499 8.755 1.86499 8.75125 1.87874V1.88374C8.76567 1.99424 8.80452 2.10014 8.865 2.19374C8.95875 2.35999 9.0875 2.53374 9.25 2.74999L9.2625 2.76499C9.41 2.96249 9.5875 3.19874 9.725 3.44374C9.865 3.69374 10 4.01249 10 4.37499C10 4.60999 9.91875 4.83499 9.85125 4.99249C9.779 5.16009 9.69461 5.32218 9.59875 5.47749C9.50069 5.64141 9.39516 5.80074 9.2825 5.95499L9.26 5.98624L9.25375 5.99624L9.25125 5.99874C9.15196 6.13152 9.00399 6.21941 8.8399 6.24308C8.6758 6.26676 8.50902 6.22428 8.37625 6.12499C8.24348 6.0257 8.15558 5.87773 8.13191 5.71364C8.10823 5.54954 8.15071 5.38276 8.25 5.24999L8.25375 5.24499L8.27125 5.22124C8.3622 5.09609 8.44729 4.96678 8.52625 4.83374C8.59333 4.72709 8.65224 4.61552 8.7025 4.49999C8.735 4.42499 8.745 4.38499 8.74875 4.37124C8.73544 4.25911 8.69698 4.15143 8.63625 4.05624C8.52022 3.86231 8.39117 3.67647 8.25 3.49999L8.2375 3.48499C8.06862 3.26913 7.91412 3.04239 7.775 2.80624C7.60475 2.52465 7.51003 2.2039 7.5 1.87499C7.5 1.63999 7.58125 1.41499 7.64875 1.25749C7.7225 1.08499 7.81625 0.914991 7.90125 0.772491C8.00055 0.609356 8.10604 0.450074 8.2175 0.294991L8.24875 0.251241C8.34804 0.118467 8.49601 0.0305745 8.6601 0.00689803C8.8242 -0.0167784 8.99098 0.025701 9.12375 0.124991C9.25652 0.224282 9.34442 0.37225 9.36809 0.536344C9.39177 0.700439 9.34929 0.867217 9.25 0.999991ZM13 0.999991L12.9963 1.00499L12.9788 1.02874C12.8878 1.15389 12.8027 1.2832 12.7238 1.41624C12.6567 1.52289 12.5978 1.63446 12.5475 1.74999C12.515 1.82499 12.505 1.86499 12.5013 1.87874V1.88374C12.5157 1.99424 12.5545 2.10014 12.615 2.19374C12.7087 2.35999 12.8375 2.53374 13 2.74999L13.0125 2.76499C13.16 2.96249 13.3375 3.19874 13.475 3.44374C13.615 3.69374 13.75 4.01249 13.75 4.37499C13.75 4.60999 13.6687 4.83499 13.6012 4.99249C13.529 5.16009 13.4446 5.32218 13.3488 5.47749C13.2511 5.64138 13.146 5.80072 13.0338 5.95499L13.01 5.98624L13.0037 5.99624L13.0013 5.99874C12.902 6.13152 12.754 6.21941 12.5899 6.24308C12.4258 6.26676 12.259 6.22428 12.1263 6.12499C11.9935 6.0257 11.9056 5.87773 11.8819 5.71364C11.8582 5.54954 11.9007 5.38276 12 5.24999L12.0037 5.24499L12.0212 5.22124C12.1122 5.09609 12.1973 4.96678 12.2762 4.83374C12.3433 4.72709 12.4022 4.61552 12.4525 4.49999C12.485 4.42499 12.495 4.38499 12.4987 4.37124C12.4854 4.25911 12.447 4.15143 12.3863 4.05624C12.2702 3.86231 12.1412 3.67647 12 3.49999L11.9875 3.48499C11.8186 3.26913 11.6641 3.04239 11.525 2.80624C11.3547 2.52465 11.26 2.2039 11.25 1.87499C11.25 1.63999 11.3313 1.41499 11.3988 1.25749C11.4725 1.08499 11.5663 0.914991 11.6512 0.772491C11.7505 0.609356 11.856 0.450074 11.9675 0.294991L11.9987 0.251241C12.098 0.118467 12.246 0.0305745 12.4101 0.00689803C12.5742 -0.0167784 12.741 0.025701 12.8737 0.124991C13.0065 0.224282 13.0944 0.37225 13.1181 0.536344C13.1418 0.700439 13.0993 0.867217 13 0.999991Z" fill="#101828"/>
</g>
<defs>
<clipPath id="clip0_12105_683">
<rect width="20" height="20" fill="white"/>
</clipPath>
</defs>
</svg>
